<svg width="502" height="312" viewBox="0 0 502 312" fill="none" xmlns="http://www.w3.org/2000/svg">
<path fill-rule="evenodd" clip-rule="evenodd" d="M250.813 312C389.333 312 501.626 242.156 501.626 156C501.626 69.8436 389.333 0 250.813 0C112.293 0 0 69.8436 0 156C0 242.156 112.293 312 250.813 312ZM35.2992 185.728C59.8884 242.703 152.62 285.109 250.813 285.109C365.455 285.109 479.139 227.305 479.139 156C479.139 145.48 476.665 135.254 472.078 125.464L402.166 248.317H397.625V248.044H376.219V63.9557H397.841V206.797L459.574 105.732C422.222 59.3997 336.787 26.8909 250.813 26.8909C156.556 26.8909 67.332 65.9654 38.5809 119.492L137.511 63.0925L137.512 90.3172L38.3964 152.621L136.196 222.548L136.196 250.605L35.2992 185.728ZM274.358 60.5035C260.811 57.0572 246.655 55.0635 232.348 54.5702L230.889 54.4487H180.727L196.243 78.9986L196.121 79.0803C199.236 79.1952 203.723 79.2768 209.016 79.373H209.016L209.018 79.373L209.02 79.373L209.021 79.373L209.022 79.3731C229.926 79.7528 263.39 80.3609 274.511 84.1518C288.45 88.9031 300.946 95.5745 311.285 103.785C321.624 111.996 329.605 121.584 334.771 132.004C337.726 137.964 339.727 144.13 340.75 150.382H211.029V168.532H340.969C339.627 178.176 335.97 187.593 330.143 196.363C323.51 206.347 314.197 215.298 302.735 222.704C300.862 223.914 298.938 225.079 296.965 226.198C290.406 229.812 283.317 232.928 275.809 235.487C264.941 239.192 228.134 239.679 205.134 239.983H205.134L205.132 239.983C198.633 240.069 193.236 240.141 189.84 240.266L194.059 242.627L190.24 240.698L174.673 264.206L232.032 263.874L232.839 264.326C252.065 263.617 270.908 260.202 288.291 254.277C305.674 248.351 321.258 240.031 334.153 229.792C347.047 219.552 357 207.593 363.442 194.599C369.885 181.604 372.691 167.827 371.701 154.056C370.711 140.284 365.943 126.787 357.671 114.335C349.399 101.883 337.784 90.7205 323.489 81.484C309.194 72.2475 292.499 65.1184 274.358 60.5035Z" fill="#FFFFFF"/>
</svg>
