<svg width="266" height="236" viewBox="0 0 266 236" fill="none" xmlns="http://www.w3.org/2000/svg">
<path fill-rule="evenodd" clip-rule="evenodd" d="M181.291 114.935L132.647 0L84.0038 114.935H101.283L101.283 114.935H84V121.065H84.0038L132.647 236L181.291 121.065H181.303V114.935H164.712L164.712 114.935H181.291ZM164.712 114.935H101.283L132.997 40L164.712 114.935ZM164.712 114.935H101.283L101.002 115.597H164.992L164.712 114.935ZM101 119.629H101.002L132.997 195.227L164.992 119.629H165V115.597H101V119.629ZM83 95.5L77 109.5L32 92L55.5 154L35 145L0 62L83 95.5ZM183 95.5L189 109.5L234 92L210.5 154L231 145L266 62L183 95.5ZM232 159.5L238 173.5L155 207L190 124L210.5 115L187 177L232 159.5ZM27 173.5L33 159.5L78 177L54.5 115L75 124L110 207L27 173.5Z" fill="white"/>
</svg>
